<svg xmlns="http://www.w3.org/2000/svg" xmlns:xlink="http://www.w3.org/1999/xlink" width="277" zoomAndPan="magnify" viewBox="0 0 207.75 57.749997" height="77" preserveAspectRatio="xMidYMid meet" version="1.0"><defs><g/><clipPath id="41c17cffa0"><path d="M 9 11.632812 L 43 11.632812 L 43 51 L 9 51 Z M 9 11.632812 " clip-rule="nonzero"/></clipPath><clipPath id="11afef7581"><path d="M 17.441406 50.679688 L 17.289062 50.945312 L 34.300781 50.945312 L 34.148438 50.679688 L 41.839844 39.945312 L 42.183594 39.945312 L 25.796875 11.558594 L 9.40625 39.949219 L 9.746094 39.949219 Z M 10.441406 39.945312 L 23.636719 39.945312 L 17.75 50.144531 Z M 18.261719 50.378906 L 24.285156 39.945312 L 27.300781 39.945312 L 33.324219 50.378906 Z M 20.113281 28.269531 C 20.113281 25.230469 22.585938 22.757812 25.625 22.757812 C 28.667969 22.757812 31.140625 25.230469 31.140625 28.269531 C 31.140625 28.519531 31.121094 28.761719 31.089844 29 C 30.535156 28.582031 29.914062 28.175781 29.234375 27.832031 C 29.019531 26.03125 27.484375 24.632812 25.628906 24.632812 C 23.769531 24.632812 22.238281 26.03125 22.019531 27.832031 C 21.34375 28.175781 20.71875 28.582031 20.164062 29 C 20.132812 28.761719 20.117188 28.519531 20.117188 28.269531 Z M 28.699219 28.269531 C 28.699219 29.964844 27.320312 31.34375 25.625 31.34375 C 23.929688 31.34375 22.550781 29.964844 22.550781 28.269531 C 22.550781 28.25 22.554688 28.230469 22.554688 28.207031 C 23.5 27.765625 24.539062 27.464844 25.625 27.464844 C 26.714844 27.464844 27.75 27.765625 28.695312 28.210938 C 28.695312 28.230469 28.699219 28.25 28.699219 28.269531 Z M 25.625 26.902344 C 24.570312 26.902344 23.5625 27.15625 22.644531 27.546875 C 22.96875 26.199219 24.179688 25.199219 25.625 25.199219 C 27.070312 25.199219 28.28125 26.199219 28.609375 27.546875 C 27.6875 27.15625 26.683594 26.902344 25.625 26.902344 Z M 22 28.488281 C 22.113281 30.390625 23.695312 31.90625 25.625 31.90625 C 27.558594 31.90625 29.136719 30.394531 29.25 28.492188 C 29.878906 28.835938 30.457031 29.234375 30.96875 29.636719 C 30.359375 32.019531 28.195312 33.785156 25.625 33.785156 C 23.054688 33.785156 20.890625 32.019531 20.285156 29.636719 C 20.796875 29.230469 21.371094 28.832031 22 28.488281 Z M 25.625 34.347656 C 28.367188 34.347656 30.6875 32.523438 31.441406 30.027344 C 32.335938 30.789062 32.972656 31.511719 33.242188 31.832031 C 32.546875 32.65625 29.371094 36.195312 25.625 36.195312 C 21.882812 36.195312 18.707031 32.65625 18.011719 31.832031 C 18.277344 31.511719 18.914062 30.789062 19.808594 30.027344 C 20.5625 32.527344 22.882812 34.347656 25.625 34.347656 Z M 25.792969 37.335938 L 26.976562 39.382812 L 24.609375 39.382812 Z M 33.835938 50.144531 L 27.949219 39.945312 L 41.144531 39.945312 Z M 25.796875 12.6875 L 41.210938 39.382812 L 27.628906 39.382812 L 26.101562 36.738281 C 30.371094 36.4375 33.6875 32.191406 33.828125 32 L 33.960938 31.832031 L 33.828125 31.660156 C 33.757812 31.566406 32.929688 30.503906 31.597656 29.40625 C 31.667969 29.039062 31.703125 28.660156 31.703125 28.273438 C 31.703125 24.921875 28.980469 22.195312 25.628906 22.195312 C 22.277344 22.195312 19.550781 24.921875 19.550781 28.273438 C 19.550781 28.65625 19.589844 29.035156 19.65625 29.40625 C 18.328125 30.503906 17.496094 31.570312 17.425781 31.660156 L 17.292969 31.832031 L 17.425781 32 C 17.574219 32.195312 21.058594 36.65625 25.480469 36.753906 L 23.960938 39.382812 L 10.378906 39.382812 Z M 25.796875 12.6875 " clip-rule="nonzero"/></clipPath></defs><g clip-path="url(#41c17cffa0)"><g clip-path="url(#11afef7581)"><path fill="#ffffff" d="M 9.40625 11.632812 L 9.40625 50.945312 L 42.183594 50.945312 L 42.183594 11.632812 Z M 9.40625 11.632812 " fill-opacity="1" fill-rule="nonzero"/></g></g><g fill="#ffffff" fill-opacity="1"><g transform="translate(51.587615, 39.645195)"><g><path d="M 28.539062 -27.179688 L 6.792969 -27.179688 C 3.804688 -27.179688 1.359375 -24.734375 1.359375 -21.742188 L 1.359375 0 L 6.792969 0 L 6.792969 -10.871094 L 28.539062 -10.871094 L 28.539062 -16.308594 L 6.792969 -16.308594 L 6.792969 -21.742188 L 28.539062 -21.742188 Z M 28.539062 -27.179688 "/></g></g></g><g fill="#ffffff" fill-opacity="1"><g transform="translate(81.483848, 39.645195)"><g><path d="M 23.101562 0 C 26.09375 0 28.539062 -2.445312 28.539062 -5.4375 L 28.539062 -27.179688 L 23.101562 -27.179688 L 23.101562 -5.4375 L 6.792969 -5.4375 L 6.792969 -27.179688 L 1.359375 -27.179688 L 1.359375 -5.4375 C 1.359375 -2.445312 3.804688 0 6.792969 0 Z M 23.101562 0 "/></g></g></g><g fill="#ffffff" fill-opacity="1"><g transform="translate(111.380082, 39.645195)"><g><path d="M 28.539062 -21.742188 C 28.539062 -24.734375 26.09375 -27.179688 23.101562 -27.179688 L 1.359375 -27.179688 L 1.359375 0 L 6.792969 0 L 6.792969 -10.871094 L 9.988281 -10.871094 L 20.042969 -0.816406 C 20.589844 -0.273438 21.269531 0 22.015625 0 L 28.539062 0 L 28.539062 -5.4375 L 23.101562 -5.4375 L 17.667969 -10.871094 L 23.101562 -10.871094 C 26.09375 -10.871094 28.539062 -13.316406 28.539062 -16.308594 Z M 23.101562 -21.742188 L 23.101562 -16.308594 L 6.792969 -16.308594 L 6.792969 -21.742188 Z M 23.101562 -21.742188 "/></g></g></g><g fill="#ffffff" fill-opacity="1"><g transform="translate(141.276316, 39.645195)"><g><path d="M 23.101562 -16.308594 L 6.792969 -16.308594 L 6.792969 -27.179688 L 1.359375 -27.179688 L 1.359375 -16.308594 C 1.359375 -13.316406 3.804688 -10.871094 6.792969 -10.871094 L 23.101562 -10.871094 L 23.101562 -5.4375 L 1.359375 -5.4375 L 1.359375 0 L 23.101562 0 C 26.09375 0 28.539062 -2.445312 28.539062 -5.4375 L 28.539062 -27.179688 L 23.101562 -27.179688 Z M 23.101562 -16.308594 "/></g></g></g><g fill="#ffffff" fill-opacity="1"><g transform="translate(171.17255, 39.645195)"><g><path d="M 6.792969 -27.179688 C 3.804688 -27.179688 1.359375 -24.734375 1.359375 -21.742188 L 1.359375 0 L 6.792969 0 L 6.792969 -10.871094 L 23.101562 -10.871094 L 23.101562 0 L 28.539062 0 L 28.539062 -21.742188 C 28.539062 -24.734375 26.09375 -27.179688 23.101562 -27.179688 Z M 6.792969 -21.742188 L 23.101562 -21.742188 L 23.101562 -16.308594 L 6.792969 -16.308594 Z M 6.792969 -21.742188 "/></g></g></g><g fill="#ffffff" fill-opacity="1"><g transform="translate(52.109025, 49.752926)"><g><path d="M 1.171875 -2.734375 C 1.179688 -2.734375 1.203125 -2.734375 1.234375 -2.734375 C 1.265625 -2.734375 1.304688 -2.734375 1.359375 -2.734375 C 1.441406 -2.734375 1.519531 -2.726562 1.59375 -2.71875 C 1.675781 -2.707031 1.753906 -2.691406 1.828125 -2.671875 C 1.898438 -2.648438 1.96875 -2.617188 2.03125 -2.578125 C 2.101562 -2.546875 2.175781 -2.503906 2.25 -2.453125 C 2.351562 -2.347656 2.425781 -2.234375 2.46875 -2.109375 C 2.46875 -2.085938 2.472656 -2.066406 2.484375 -2.046875 C 2.492188 -2.023438 2.5 -2 2.5 -1.96875 C 2.507812 -1.9375 2.515625 -1.910156 2.515625 -1.890625 C 2.523438 -1.878906 2.53125 -1.867188 2.53125 -1.859375 L 2.53125 -1.84375 L 1.734375 -1.84375 L 1.734375 -1.890625 C 1.722656 -1.929688 1.703125 -1.96875 1.671875 -2 C 1.640625 -2.039062 1.601562 -2.070312 1.5625 -2.09375 C 1.53125 -2.113281 1.488281 -2.128906 1.4375 -2.140625 C 1.394531 -2.148438 1.351562 -2.15625 1.3125 -2.15625 C 1.144531 -2.15625 1.0625 -2.078125 1.0625 -1.921875 C 1.0625 -1.867188 1.09375 -1.816406 1.15625 -1.765625 C 1.21875 -1.722656 1.332031 -1.675781 1.5 -1.625 C 1.625 -1.582031 1.734375 -1.546875 1.828125 -1.515625 C 1.921875 -1.484375 2 -1.453125 2.0625 -1.421875 C 2.113281 -1.390625 2.160156 -1.359375 2.203125 -1.328125 C 2.253906 -1.296875 2.300781 -1.265625 2.34375 -1.234375 C 2.425781 -1.148438 2.488281 -1.050781 2.53125 -0.9375 C 2.582031 -0.820312 2.601562 -0.703125 2.59375 -0.578125 C 2.582031 -0.410156 2.539062 -0.265625 2.46875 -0.140625 C 2.394531 -0.0234375 2.296875 0.0664062 2.171875 0.140625 C 2.046875 0.210938 1.910156 0.265625 1.765625 0.296875 C 1.617188 0.328125 1.46875 0.34375 1.3125 0.34375 C 1.175781 0.34375 1.046875 0.328125 0.921875 0.296875 C 0.804688 0.265625 0.703125 0.21875 0.609375 0.15625 C 0.515625 0.09375 0.429688 0.015625 0.359375 -0.078125 C 0.285156 -0.179688 0.234375 -0.300781 0.203125 -0.4375 C 0.171875 -0.519531 0.15625 -0.582031 0.15625 -0.625 C 0.15625 -0.632812 0.289062 -0.640625 0.5625 -0.640625 L 0.953125 -0.640625 L 0.96875 -0.578125 C 0.976562 -0.503906 1.007812 -0.4375 1.0625 -0.375 C 1.113281 -0.3125 1.175781 -0.269531 1.25 -0.25 C 1.269531 -0.25 1.289062 -0.242188 1.3125 -0.234375 C 1.332031 -0.234375 1.359375 -0.234375 1.390625 -0.234375 C 1.453125 -0.234375 1.515625 -0.242188 1.578125 -0.265625 C 1.640625 -0.296875 1.6875 -0.347656 1.71875 -0.421875 C 1.738281 -0.472656 1.738281 -0.535156 1.71875 -0.609375 C 1.695312 -0.679688 1.664062 -0.734375 1.625 -0.765625 C 1.570312 -0.804688 1.4375 -0.859375 1.21875 -0.921875 C 1.101562 -0.953125 1.003906 -0.984375 0.921875 -1.015625 C 0.835938 -1.046875 0.765625 -1.070312 0.703125 -1.09375 C 0.523438 -1.1875 0.398438 -1.289062 0.328125 -1.40625 C 0.253906 -1.53125 0.222656 -1.695312 0.234375 -1.90625 C 0.242188 -2.03125 0.269531 -2.140625 0.3125 -2.234375 C 0.351562 -2.328125 0.410156 -2.40625 0.484375 -2.46875 C 0.566406 -2.539062 0.65625 -2.597656 0.75 -2.640625 C 0.851562 -2.679688 0.96875 -2.707031 1.09375 -2.71875 C 1.101562 -2.71875 1.117188 -2.71875 1.140625 -2.71875 C 1.160156 -2.726562 1.171875 -2.734375 1.171875 -2.734375 Z M 1.171875 -2.734375 "/></g></g></g><g fill="#ffffff" fill-opacity="1"><g transform="translate(56.599889, 49.752926)"><g><path d="M 0.234375 -2.703125 C 0.234375 -2.703125 0.238281 -2.703125 0.25 -2.703125 C 0.257812 -2.703125 0.296875 -2.703125 0.359375 -2.703125 C 0.429688 -2.703125 0.53125 -2.703125 0.65625 -2.703125 L 1.09375 -2.703125 L 1.09375 0.296875 L 0.296875 0.296875 L 0.296875 -1.140625 C 0.296875 -1.628906 0.296875 -1.992188 0.296875 -2.234375 C 0.296875 -2.472656 0.296875 -2.597656 0.296875 -2.609375 C 0.285156 -2.648438 0.265625 -2.679688 0.234375 -2.703125 Z M 1.203125 -2.703125 L 1.5 -2.703125 C 1.570312 -2.703125 1.632812 -2.703125 1.6875 -2.703125 C 1.738281 -2.703125 1.78125 -2.703125 1.8125 -2.703125 C 1.84375 -2.703125 1.867188 -2.695312 1.890625 -2.6875 C 1.921875 -2.6875 1.945312 -2.679688 1.96875 -2.671875 C 2.039062 -2.648438 2.109375 -2.617188 2.171875 -2.578125 C 2.242188 -2.535156 2.304688 -2.484375 2.359375 -2.421875 C 2.421875 -2.367188 2.46875 -2.304688 2.5 -2.234375 C 2.539062 -2.171875 2.570312 -2.109375 2.59375 -2.046875 C 2.675781 -1.796875 2.660156 -1.5625 2.546875 -1.34375 C 2.484375 -1.207031 2.394531 -1.097656 2.28125 -1.015625 C 2.175781 -0.929688 2.054688 -0.867188 1.921875 -0.828125 C 1.828125 -0.804688 1.671875 -0.796875 1.453125 -0.796875 L 1.203125 -0.796875 L 1.203125 -1.359375 L 1.359375 -1.359375 C 1.460938 -1.359375 1.53125 -1.363281 1.5625 -1.375 C 1.738281 -1.425781 1.820312 -1.5625 1.8125 -1.78125 C 1.800781 -1.925781 1.742188 -2.019531 1.640625 -2.0625 C 1.609375 -2.070312 1.53125 -2.078125 1.40625 -2.078125 L 1.203125 -2.078125 Z M 1.203125 -2.703125 "/></g></g></g><g fill="#ffffff" fill-opacity="1"><g transform="translate(61.098746, 49.752926)"><g><path d="M 1.453125 -2.734375 C 1.472656 -2.734375 1.492188 -2.734375 1.515625 -2.734375 C 1.523438 -2.734375 1.535156 -2.734375 1.546875 -2.734375 L 1.5625 -2.734375 L 1.5625 -2.421875 C 1.5625 -2.210938 1.554688 -2.109375 1.546875 -2.109375 C 1.503906 -2.109375 1.445312 -2.09375 1.375 -2.0625 C 1.132812 -1.945312 1.019531 -1.644531 1.03125 -1.15625 C 1.03125 -1.082031 1.035156 -0.992188 1.046875 -0.890625 C 1.066406 -0.796875 1.09375 -0.703125 1.125 -0.609375 C 1.164062 -0.515625 1.21875 -0.429688 1.28125 -0.359375 C 1.351562 -0.296875 1.4375 -0.257812 1.53125 -0.25 L 1.5625 -0.25 L 1.5625 0.34375 L 1.53125 0.34375 C 1.425781 0.34375 1.320312 0.328125 1.21875 0.296875 C 1.113281 0.273438 1.015625 0.238281 0.921875 0.1875 C 0.828125 0.144531 0.738281 0.0859375 0.65625 0.015625 C 0.570312 -0.046875 0.503906 -0.117188 0.453125 -0.203125 C 0.316406 -0.410156 0.226562 -0.664062 0.1875 -0.96875 C 0.1875 -0.988281 0.1875 -1.019531 0.1875 -1.0625 C 0.1875 -1.101562 0.1875 -1.15625 0.1875 -1.21875 C 0.1875 -1.28125 0.1875 -1.332031 0.1875 -1.375 C 0.1875 -1.414062 0.1875 -1.445312 0.1875 -1.46875 C 0.207031 -1.601562 0.238281 -1.726562 0.28125 -1.84375 C 0.332031 -1.96875 0.394531 -2.082031 0.46875 -2.1875 C 0.539062 -2.289062 0.625 -2.378906 0.71875 -2.453125 C 0.820312 -2.535156 0.9375 -2.597656 1.0625 -2.640625 C 1.175781 -2.691406 1.304688 -2.722656 1.453125 -2.734375 Z M 1.65625 -2.421875 L 1.65625 -2.734375 L 1.6875 -2.734375 C 1.800781 -2.734375 1.910156 -2.71875 2.015625 -2.6875 C 2.117188 -2.664062 2.21875 -2.628906 2.3125 -2.578125 C 2.40625 -2.523438 2.492188 -2.460938 2.578125 -2.390625 C 2.660156 -2.316406 2.726562 -2.234375 2.78125 -2.140625 C 2.914062 -1.929688 3.003906 -1.695312 3.046875 -1.4375 C 3.046875 -1.414062 3.046875 -1.382812 3.046875 -1.34375 C 3.054688 -1.300781 3.0625 -1.253906 3.0625 -1.203125 C 3.050781 -1.046875 3.03125 -0.890625 3 -0.734375 C 2.96875 -0.585938 2.910156 -0.445312 2.828125 -0.3125 C 2.710938 -0.125 2.566406 0.0195312 2.390625 0.125 C 2.222656 0.238281 2.03125 0.3125 1.8125 0.34375 C 1.789062 0.34375 1.769531 0.34375 1.75 0.34375 C 1.738281 0.34375 1.726562 0.34375 1.71875 0.34375 L 1.6875 0.34375 L 1.671875 0.1875 C 1.671875 0.09375 1.671875 -0.00390625 1.671875 -0.109375 L 1.6875 -0.25 L 1.734375 -0.265625 C 1.828125 -0.296875 1.90625 -0.335938 1.96875 -0.390625 C 2.03125 -0.453125 2.078125 -0.523438 2.109375 -0.609375 C 2.140625 -0.691406 2.160156 -0.78125 2.171875 -0.875 C 2.191406 -0.96875 2.203125 -1.054688 2.203125 -1.140625 C 2.210938 -1.347656 2.191406 -1.53125 2.140625 -1.6875 C 2.054688 -1.945312 1.914062 -2.085938 1.71875 -2.109375 L 1.65625 -2.125 Z M 1.65625 -2.421875 "/></g></g></g><g fill="#ffffff" fill-opacity="1"><g transform="translate(66.077485, 49.752926)"><g><path d="M 1.125 -1.4375 L 1.359375 -1.4375 C 1.421875 -1.4375 1.472656 -1.4375 1.515625 -1.4375 C 1.554688 -1.4375 1.582031 -1.4375 1.59375 -1.4375 C 1.625 -1.445312 1.660156 -1.460938 1.703125 -1.484375 C 1.765625 -1.515625 1.804688 -1.554688 1.828125 -1.609375 C 1.867188 -1.691406 1.878906 -1.78125 1.859375 -1.875 C 1.828125 -1.976562 1.769531 -2.046875 1.6875 -2.078125 L 1.640625 -2.09375 L 1.203125 -2.09375 L 1.203125 -2.703125 C 1.335938 -2.703125 1.445312 -2.703125 1.53125 -2.703125 C 1.613281 -2.703125 1.679688 -2.703125 1.734375 -2.703125 C 1.785156 -2.703125 1.820312 -2.703125 1.84375 -2.703125 C 1.863281 -2.703125 1.878906 -2.703125 1.890625 -2.703125 C 2.109375 -2.679688 2.285156 -2.613281 2.421875 -2.5 C 2.554688 -2.394531 2.648438 -2.226562 2.703125 -2 C 2.734375 -1.78125 2.707031 -1.597656 2.625 -1.453125 C 2.539062 -1.304688 2.40625 -1.21875 2.21875 -1.1875 L 2.15625 -1.1875 L 2.21875 -1.171875 C 2.394531 -1.140625 2.515625 -1.050781 2.578125 -0.90625 C 2.597656 -0.875 2.613281 -0.820312 2.625 -0.75 C 2.632812 -0.675781 2.644531 -0.582031 2.65625 -0.46875 C 2.6875 -0.0507812 2.703125 0.195312 2.703125 0.28125 L 2.703125 0.296875 L 1.859375 0.296875 L 1.84375 0.265625 C 1.84375 0.253906 1.84375 0.226562 1.84375 0.1875 C 1.84375 0.144531 1.835938 0.0976562 1.828125 0.046875 C 1.804688 -0.398438 1.773438 -0.664062 1.734375 -0.75 C 1.722656 -0.769531 1.675781 -0.789062 1.59375 -0.8125 C 1.570312 -0.8125 1.484375 -0.816406 1.328125 -0.828125 L 1.125 -0.828125 L 1.125 0.296875 L 0.3125 0.296875 L 0.3125 -1.15625 C 0.3125 -1.507812 0.3125 -1.785156 0.3125 -1.984375 C 0.3125 -2.191406 0.3125 -2.332031 0.3125 -2.40625 C 0.300781 -2.539062 0.296875 -2.613281 0.296875 -2.625 C 0.273438 -2.664062 0.253906 -2.691406 0.234375 -2.703125 C 0.242188 -2.703125 0.257812 -2.703125 0.28125 -2.703125 C 0.300781 -2.703125 0.328125 -2.703125 0.359375 -2.703125 C 0.390625 -2.703125 0.421875 -2.703125 0.453125 -2.703125 L 1.125 -2.703125 Z M 1.125 -1.4375 "/></g></g></g><g fill="#ffffff" fill-opacity="1"><g transform="translate(70.784292, 49.752926)"><g><path d="M 0.078125 -2.703125 L 2.4375 -2.703125 L 2.4375 -2.09375 L 0.078125 -2.09375 Z M 0.828125 -1.953125 L 0.796875 -1.96875 L 1.671875 -1.96875 L 1.671875 0.296875 L 0.859375 0.296875 L 0.859375 -0.78125 C 0.859375 -1.15625 0.859375 -1.4375 0.859375 -1.625 C 0.859375 -1.8125 0.859375 -1.910156 0.859375 -1.921875 C 0.859375 -1.929688 0.847656 -1.941406 0.828125 -1.953125 Z M 0.828125 -1.953125 "/></g></g></g><g fill="#ffffff" fill-opacity="1"><g transform="translate(75.043211, 49.752926)"><g><path d="M 1.171875 -2.734375 C 1.179688 -2.734375 1.203125 -2.734375 1.234375 -2.734375 C 1.265625 -2.734375 1.304688 -2.734375 1.359375 -2.734375 C 1.441406 -2.734375 1.519531 -2.726562 1.59375 -2.71875 C 1.675781 -2.707031 1.753906 -2.691406 1.828125 -2.671875 C 1.898438 -2.648438 1.96875 -2.617188 2.03125 -2.578125 C 2.101562 -2.546875 2.175781 -2.503906 2.25 -2.453125 C 2.351562 -2.347656 2.425781 -2.234375 2.46875 -2.109375 C 2.46875 -2.085938 2.472656 -2.066406 2.484375 -2.046875 C 2.492188 -2.023438 2.5 -2 2.5 -1.96875 C 2.507812 -1.9375 2.515625 -1.910156 2.515625 -1.890625 C 2.523438 -1.878906 2.53125 -1.867188 2.53125 -1.859375 L 2.53125 -1.84375 L 1.734375 -1.84375 L 1.734375 -1.890625 C 1.722656 -1.929688 1.703125 -1.96875 1.671875 -2 C 1.640625 -2.039062 1.601562 -2.070312 1.5625 -2.09375 C 1.53125 -2.113281 1.488281 -2.128906 1.4375 -2.140625 C 1.394531 -2.148438 1.351562 -2.15625 1.3125 -2.15625 C 1.144531 -2.15625 1.0625 -2.078125 1.0625 -1.921875 C 1.0625 -1.867188 1.09375 -1.816406 1.15625 -1.765625 C 1.21875 -1.722656 1.332031 -1.675781 1.5 -1.625 C 1.625 -1.582031 1.734375 -1.546875 1.828125 -1.515625 C 1.921875 -1.484375 2 -1.453125 2.0625 -1.421875 C 2.113281 -1.390625 2.160156 -1.359375 2.203125 -1.328125 C 2.253906 -1.296875 2.300781 -1.265625 2.34375 -1.234375 C 2.425781 -1.148438 2.488281 -1.050781 2.53125 -0.9375 C 2.582031 -0.820312 2.601562 -0.703125 2.59375 -0.578125 C 2.582031 -0.410156 2.539062 -0.265625 2.46875 -0.140625 C 2.394531 -0.0234375 2.296875 0.0664062 2.171875 0.140625 C 2.046875 0.210938 1.910156 0.265625 1.765625 0.296875 C 1.617188 0.328125 1.46875 0.34375 1.3125 0.34375 C 1.175781 0.34375 1.046875 0.328125 0.921875 0.296875 C 0.804688 0.265625 0.703125 0.21875 0.609375 0.15625 C 0.515625 0.09375 0.429688 0.015625 0.359375 -0.078125 C 0.285156 -0.179688 0.234375 -0.300781 0.203125 -0.4375 C 0.171875 -0.519531 0.15625 -0.582031 0.15625 -0.625 C 0.15625 -0.632812 0.289062 -0.640625 0.5625 -0.640625 L 0.953125 -0.640625 L 0.96875 -0.578125 C 0.976562 -0.503906 1.007812 -0.4375 1.0625 -0.375 C 1.113281 -0.3125 1.175781 -0.269531 1.25 -0.25 C 1.269531 -0.25 1.289062 -0.242188 1.3125 -0.234375 C 1.332031 -0.234375 1.359375 -0.234375 1.390625 -0.234375 C 1.453125 -0.234375 1.515625 -0.242188 1.578125 -0.265625 C 1.640625 -0.296875 1.6875 -0.347656 1.71875 -0.421875 C 1.738281 -0.472656 1.738281 -0.535156 1.71875 -0.609375 C 1.695312 -0.679688 1.664062 -0.734375 1.625 -0.765625 C 1.570312 -0.804688 1.4375 -0.859375 1.21875 -0.921875 C 1.101562 -0.953125 1.003906 -0.984375 0.921875 -1.015625 C 0.835938 -1.046875 0.765625 -1.070312 0.703125 -1.09375 C 0.523438 -1.1875 0.398438 -1.289062 0.328125 -1.40625 C 0.253906 -1.53125 0.222656 -1.695312 0.234375 -1.90625 C 0.242188 -2.03125 0.269531 -2.140625 0.3125 -2.234375 C 0.351562 -2.328125 0.410156 -2.40625 0.484375 -2.46875 C 0.566406 -2.539062 0.65625 -2.597656 0.75 -2.640625 C 0.851562 -2.679688 0.96875 -2.707031 1.09375 -2.71875 C 1.101562 -2.71875 1.117188 -2.71875 1.140625 -2.71875 C 1.160156 -2.726562 1.171875 -2.734375 1.171875 -2.734375 Z M 1.171875 -2.734375 "/></g></g></g><g fill="#ffffff" fill-opacity="1"><g transform="translate(79.534076, 49.752926)"><g/></g></g><g fill="#ffffff" fill-opacity="1"><g transform="translate(82.077429, 49.752926)"><g><path d="M 1.546875 -2.71875 C 1.628906 -2.71875 1.710938 -2.707031 1.796875 -2.6875 C 1.878906 -2.664062 1.957031 -2.632812 2.03125 -2.59375 C 2.101562 -2.5625 2.171875 -2.515625 2.234375 -2.453125 C 2.296875 -2.390625 2.347656 -2.320312 2.390625 -2.25 C 2.441406 -2.132812 2.460938 -2.015625 2.453125 -1.890625 C 2.441406 -1.773438 2.394531 -1.664062 2.3125 -1.5625 C 2.269531 -1.519531 2.207031 -1.46875 2.125 -1.40625 C 2.050781 -1.351562 1.984375 -1.3125 1.921875 -1.28125 C 1.878906 -1.257812 1.859375 -1.242188 1.859375 -1.234375 C 1.859375 -1.234375 1.890625 -1.171875 1.953125 -1.046875 C 2.023438 -0.929688 2.0625 -0.875 2.0625 -0.875 C 2.070312 -0.875 2.09375 -0.929688 2.125 -1.046875 C 2.15625 -1.160156 2.171875 -1.226562 2.171875 -1.25 C 2.171875 -1.257812 2.285156 -1.265625 2.515625 -1.265625 C 2.742188 -1.265625 2.859375 -1.257812 2.859375 -1.25 C 2.859375 -1.21875 2.847656 -1.164062 2.828125 -1.09375 C 2.804688 -1.019531 2.78125 -0.941406 2.75 -0.859375 C 2.726562 -0.785156 2.703125 -0.710938 2.671875 -0.640625 C 2.640625 -0.578125 2.613281 -0.523438 2.59375 -0.484375 L 2.546875 -0.390625 L 2.5625 -0.375 C 2.5625 -0.375 2.570312 -0.351562 2.59375 -0.3125 C 2.613281 -0.28125 2.640625 -0.238281 2.671875 -0.1875 C 2.703125 -0.144531 2.734375 -0.0976562 2.765625 -0.046875 C 2.796875 0.00390625 2.828125 0.0507812 2.859375 0.09375 C 2.890625 0.144531 2.914062 0.1875 2.9375 0.21875 C 2.957031 0.25 2.96875 0.269531 2.96875 0.28125 C 2.96875 0.28125 2.941406 0.28125 2.890625 0.28125 C 2.835938 0.289062 2.726562 0.296875 2.5625 0.296875 L 2.15625 0.296875 L 2.09375 0.21875 C 2.082031 0.195312 2.066406 0.175781 2.046875 0.15625 C 2.035156 0.132812 2.03125 0.128906 2.03125 0.140625 C 2.03125 0.128906 2 0.140625 1.9375 0.171875 C 1.832031 0.222656 1.71875 0.257812 1.59375 0.28125 C 1.476562 0.300781 1.363281 0.3125 1.25 0.3125 C 1.132812 0.3125 1.019531 0.296875 0.90625 0.265625 C 0.800781 0.242188 0.695312 0.207031 0.59375 0.15625 C 0.5 0.101562 0.414062 0.0351562 0.34375 -0.046875 C 0.28125 -0.128906 0.238281 -0.234375 0.21875 -0.359375 C 0.195312 -0.460938 0.195312 -0.566406 0.21875 -0.671875 C 0.25 -0.816406 0.304688 -0.941406 0.390625 -1.046875 C 0.484375 -1.160156 0.59375 -1.25 0.71875 -1.3125 L 0.78125 -1.34375 L 0.71875 -1.390625 C 0.613281 -1.492188 0.546875 -1.613281 0.515625 -1.75 C 0.492188 -1.789062 0.484375 -1.84375 0.484375 -1.90625 C 0.484375 -1.96875 0.492188 -2.019531 0.515625 -2.0625 C 0.535156 -2.164062 0.582031 -2.257812 0.65625 -2.34375 C 0.726562 -2.425781 0.8125 -2.492188 0.90625 -2.546875 C 1.007812 -2.609375 1.113281 -2.648438 1.21875 -2.671875 C 1.332031 -2.703125 1.441406 -2.71875 1.546875 -2.71875 Z M 1.546875 -2.15625 C 1.523438 -2.175781 1.5 -2.1875 1.46875 -2.1875 C 1.4375 -2.1875 1.410156 -2.175781 1.390625 -2.15625 C 1.296875 -2.132812 1.25 -2.070312 1.25 -1.96875 C 1.238281 -1.90625 1.25 -1.84375 1.28125 -1.78125 C 1.28125 -1.769531 1.285156 -1.753906 1.296875 -1.734375 C 1.304688 -1.722656 1.316406 -1.707031 1.328125 -1.6875 C 1.347656 -1.675781 1.363281 -1.664062 1.375 -1.65625 C 1.382812 -1.644531 1.394531 -1.640625 1.40625 -1.640625 C 1.425781 -1.640625 1.476562 -1.664062 1.5625 -1.71875 C 1.65625 -1.78125 1.703125 -1.863281 1.703125 -1.96875 C 1.703125 -2.007812 1.6875 -2.046875 1.65625 -2.078125 C 1.632812 -2.117188 1.597656 -2.144531 1.546875 -2.15625 Z M 1.234375 -0.890625 C 1.222656 -0.910156 1.21875 -0.921875 1.21875 -0.921875 C 1.207031 -0.921875 1.1875 -0.910156 1.15625 -0.890625 C 1.125 -0.867188 1.101562 -0.851562 1.09375 -0.84375 C 1.070312 -0.800781 1.050781 -0.757812 1.03125 -0.71875 C 1.019531 -0.675781 1.015625 -0.628906 1.015625 -0.578125 C 1.023438 -0.535156 1.039062 -0.492188 1.0625 -0.453125 C 1.082031 -0.410156 1.109375 -0.367188 1.140625 -0.328125 C 1.203125 -0.253906 1.285156 -0.21875 1.390625 -0.21875 C 1.472656 -0.21875 1.550781 -0.234375 1.625 -0.265625 L 1.671875 -0.296875 L 1.640625 -0.328125 C 1.617188 -0.359375 1.585938 -0.394531 1.546875 -0.4375 C 1.515625 -0.488281 1.476562 -0.546875 1.4375 -0.609375 C 1.394531 -0.671875 1.351562 -0.722656 1.3125 -0.765625 C 1.28125 -0.816406 1.253906 -0.859375 1.234375 -0.890625 Z M 1.234375 -0.890625 "/></g></g></g><g fill="#ffffff" fill-opacity="1"><g transform="translate(86.864217, 49.752926)"><g/></g></g><g fill="#ffffff" fill-opacity="1"><g transform="translate(89.40757, 49.752926)"><g><path d="M 1.71875 -2.734375 C 1.832031 -2.734375 1.910156 -2.734375 1.953125 -2.734375 C 2.128906 -2.703125 2.289062 -2.640625 2.4375 -2.546875 C 2.582031 -2.460938 2.695312 -2.34375 2.78125 -2.1875 C 2.789062 -2.164062 2.800781 -2.140625 2.8125 -2.109375 C 2.832031 -2.078125 2.847656 -2.039062 2.859375 -2 C 2.867188 -1.96875 2.875 -1.9375 2.875 -1.90625 C 2.882812 -1.875 2.890625 -1.847656 2.890625 -1.828125 L 2.890625 -1.8125 L 2.484375 -1.8125 C 2.390625 -1.8125 2.3125 -1.8125 2.25 -1.8125 C 2.1875 -1.8125 2.144531 -1.8125 2.125 -1.8125 C 2.082031 -1.8125 2.0625 -1.816406 2.0625 -1.828125 C 2.0625 -1.835938 2.054688 -1.847656 2.046875 -1.859375 C 2.046875 -1.867188 2.039062 -1.878906 2.03125 -1.890625 C 2.03125 -1.910156 2.019531 -1.925781 2 -1.9375 C 1.988281 -1.957031 1.984375 -1.972656 1.984375 -1.984375 C 1.929688 -2.035156 1.875 -2.070312 1.8125 -2.09375 C 1.757812 -2.113281 1.695312 -2.125 1.625 -2.125 C 1.507812 -2.125 1.414062 -2.09375 1.34375 -2.03125 C 1.28125 -1.96875 1.226562 -1.890625 1.1875 -1.796875 C 1.144531 -1.703125 1.113281 -1.597656 1.09375 -1.484375 C 1.082031 -1.378906 1.078125 -1.28125 1.078125 -1.1875 C 1.078125 -1.132812 1.078125 -1.09375 1.078125 -1.0625 C 1.078125 -1.03125 1.078125 -1 1.078125 -0.96875 C 1.097656 -0.78125 1.140625 -0.625 1.203125 -0.5 C 1.265625 -0.382812 1.347656 -0.304688 1.453125 -0.265625 C 1.492188 -0.253906 1.539062 -0.25 1.59375 -0.25 C 1.675781 -0.25 1.742188 -0.257812 1.796875 -0.28125 C 1.859375 -0.3125 1.90625 -0.347656 1.9375 -0.390625 C 1.976562 -0.441406 2.003906 -0.5 2.015625 -0.5625 C 2.035156 -0.632812 2.046875 -0.707031 2.046875 -0.78125 L 2.046875 -0.8125 L 1.5625 -0.8125 L 1.5625 -1.40625 L 2.890625 -1.40625 L 2.890625 0.265625 L 2.25 0.265625 L 2.25 0.015625 L 2.21875 0.0625 C 2.09375 0.25 1.875 0.34375 1.5625 0.34375 C 1.457031 0.34375 1.347656 0.332031 1.234375 0.3125 C 1.128906 0.289062 1.03125 0.257812 0.9375 0.21875 C 0.84375 0.175781 0.753906 0.117188 0.671875 0.046875 C 0.585938 -0.015625 0.515625 -0.09375 0.453125 -0.1875 C 0.253906 -0.445312 0.164062 -0.800781 0.1875 -1.25 C 0.1875 -1.507812 0.238281 -1.75 0.34375 -1.96875 C 0.457031 -2.1875 0.628906 -2.367188 0.859375 -2.515625 C 0.929688 -2.566406 1 -2.601562 1.0625 -2.625 C 1.132812 -2.65625 1.203125 -2.675781 1.265625 -2.6875 C 1.335938 -2.707031 1.40625 -2.71875 1.46875 -2.71875 C 1.539062 -2.726562 1.625 -2.734375 1.71875 -2.734375 Z M 1.71875 -2.734375 "/></g></g></g><g fill="#ffffff" fill-opacity="1"><g transform="translate(94.31833, 49.752926)"><g><path d="M 0.8125 -2.6875 C 0.800781 -2.695312 0.800781 -2.703125 0.8125 -2.703125 C 0.832031 -2.703125 0.890625 -2.703125 0.984375 -2.703125 C 1.078125 -2.703125 1.203125 -2.703125 1.359375 -2.703125 L 1.96875 -2.703125 L 1.984375 -2.625 C 2.003906 -2.570312 2.03125 -2.488281 2.0625 -2.375 C 2.082031 -2.300781 2.097656 -2.238281 2.109375 -2.1875 C 2.128906 -2.144531 2.140625 -2.109375 2.140625 -2.078125 C 2.140625 -2.066406 2.160156 -2 2.203125 -1.875 C 2.242188 -1.757812 2.269531 -1.664062 2.28125 -1.59375 C 2.3125 -1.488281 2.335938 -1.390625 2.359375 -1.296875 C 2.390625 -1.203125 2.421875 -1.113281 2.453125 -1.03125 C 2.453125 -1.007812 2.457031 -0.984375 2.46875 -0.953125 C 2.476562 -0.929688 2.488281 -0.898438 2.5 -0.859375 C 2.507812 -0.828125 2.515625 -0.796875 2.515625 -0.765625 C 2.523438 -0.742188 2.535156 -0.734375 2.546875 -0.734375 C 2.546875 -0.722656 2.546875 -0.707031 2.546875 -0.6875 C 2.554688 -0.664062 2.566406 -0.644531 2.578125 -0.625 C 2.597656 -0.5625 2.609375 -0.515625 2.609375 -0.484375 C 2.609375 -0.484375 2.609375 -0.472656 2.609375 -0.453125 C 2.617188 -0.429688 2.625 -0.40625 2.625 -0.375 C 2.632812 -0.351562 2.644531 -0.332031 2.65625 -0.3125 C 2.664062 -0.300781 2.671875 -0.289062 2.671875 -0.28125 C 2.671875 -0.28125 2.679688 -0.25 2.703125 -0.1875 C 2.703125 -0.175781 2.707031 -0.15625 2.71875 -0.125 C 2.726562 -0.09375 2.738281 -0.0546875 2.75 -0.015625 C 2.757812 0.015625 2.765625 0.0390625 2.765625 0.0625 C 2.773438 0.09375 2.78125 0.109375 2.78125 0.109375 C 2.78125 0.117188 2.785156 0.132812 2.796875 0.15625 C 2.804688 0.1875 2.8125 0.207031 2.8125 0.21875 C 2.820312 0.238281 2.828125 0.253906 2.828125 0.265625 C 2.828125 0.273438 2.832031 0.285156 2.84375 0.296875 C 2.84375 0.296875 2.835938 0.296875 2.828125 0.296875 C 2.816406 0.296875 2.78125 0.296875 2.71875 0.296875 C 2.65625 0.296875 2.570312 0.296875 2.46875 0.296875 L 2.046875 0.296875 L 2.03125 0.25 C 2.03125 0.238281 2.023438 0.222656 2.015625 0.203125 C 2.015625 0.179688 2.007812 0.160156 2 0.140625 C 2 0.128906 1.992188 0.113281 1.984375 0.09375 C 1.984375 0.0820312 1.976562 0.0625 1.96875 0.03125 C 1.957031 0 1.945312 -0.0234375 1.9375 -0.046875 C 1.9375 -0.078125 1.9375 -0.101562 1.9375 -0.125 L 1.890625 -0.3125 L 0.984375 -0.3125 L 0.96875 -0.28125 C 0.945312 -0.195312 0.925781 -0.113281 0.90625 -0.03125 C 0.882812 0.0390625 0.867188 0.109375 0.859375 0.171875 L 0.8125 0.296875 L 0.40625 0.296875 C 0.300781 0.296875 0.21875 0.296875 0.15625 0.296875 C 0.09375 0.296875 0.0625 0.296875 0.0625 0.296875 C 0.132812 0.046875 0.207031 -0.195312 0.28125 -0.4375 C 0.351562 -0.675781 0.421875 -0.921875 0.484375 -1.171875 C 0.484375 -1.179688 0.488281 -1.203125 0.5 -1.234375 C 0.507812 -1.273438 0.519531 -1.304688 0.53125 -1.328125 C 0.539062 -1.367188 0.550781 -1.40625 0.5625 -1.4375 C 0.570312 -1.476562 0.582031 -1.519531 0.59375 -1.5625 C 0.601562 -1.601562 0.613281 -1.644531 0.625 -1.6875 C 0.632812 -1.738281 0.648438 -1.789062 0.671875 -1.84375 C 0.671875 -1.851562 0.671875 -1.867188 0.671875 -1.890625 C 0.679688 -1.910156 0.6875 -1.929688 0.6875 -1.953125 C 0.695312 -1.984375 0.707031 -2.007812 0.71875 -2.03125 C 0.726562 -2.050781 0.734375 -2.066406 0.734375 -2.078125 C 0.734375 -2.085938 0.734375 -2.097656 0.734375 -2.109375 C 0.742188 -2.128906 0.753906 -2.15625 0.765625 -2.1875 C 0.773438 -2.238281 0.78125 -2.269531 0.78125 -2.28125 C 0.789062 -2.289062 0.796875 -2.3125 0.796875 -2.34375 C 0.804688 -2.375 0.820312 -2.414062 0.84375 -2.46875 C 0.863281 -2.53125 0.875 -2.570312 0.875 -2.59375 C 0.875 -2.632812 0.851562 -2.664062 0.8125 -2.6875 Z M 1.484375 -1.828125 C 1.453125 -1.960938 1.429688 -2.03125 1.421875 -2.03125 C 1.421875 -2.007812 1.410156 -1.957031 1.390625 -1.875 C 1.390625 -1.851562 1.382812 -1.820312 1.375 -1.78125 C 1.363281 -1.75 1.351562 -1.707031 1.34375 -1.65625 C 1.332031 -1.632812 1.320312 -1.59375 1.3125 -1.53125 C 1.300781 -1.476562 1.285156 -1.421875 1.265625 -1.359375 C 1.242188 -1.285156 1.222656 -1.203125 1.203125 -1.109375 C 1.171875 -1.003906 1.15625 -0.945312 1.15625 -0.9375 C 1.15625 -0.9375 1.25 -0.9375 1.4375 -0.9375 L 1.71875 -0.9375 L 1.703125 -0.96875 C 1.679688 -1.050781 1.648438 -1.164062 1.609375 -1.3125 C 1.578125 -1.457031 1.535156 -1.628906 1.484375 -1.828125 Z M 1.484375 -1.828125 "/></g></g></g><g fill="#ffffff" fill-opacity="1"><g transform="translate(98.961153, 49.752926)"><g><path d="M 0.234375 -2.6875 C 0.234375 -2.695312 0.238281 -2.703125 0.25 -2.703125 C 0.257812 -2.703125 0.316406 -2.703125 0.421875 -2.703125 C 0.523438 -2.703125 0.671875 -2.703125 0.859375 -2.703125 C 1.296875 -2.703125 1.519531 -2.703125 1.53125 -2.703125 C 1.53125 -2.671875 1.554688 -2.535156 1.609375 -2.296875 C 1.609375 -2.296875 1.609375 -2.285156 1.609375 -2.265625 C 1.617188 -2.242188 1.625 -2.21875 1.625 -2.1875 C 1.632812 -2.164062 1.640625 -2.144531 1.640625 -2.125 C 1.640625 -2.101562 1.644531 -2.085938 1.65625 -2.078125 C 1.695312 -1.890625 1.734375 -1.703125 1.765625 -1.515625 C 1.804688 -1.328125 1.847656 -1.132812 1.890625 -0.9375 C 1.898438 -0.863281 1.90625 -0.828125 1.90625 -0.828125 L 1.96875 -1.015625 C 1.976562 -1.046875 1.988281 -1.097656 2 -1.171875 C 2.019531 -1.242188 2.039062 -1.332031 2.0625 -1.4375 C 2.082031 -1.5 2.097656 -1.566406 2.109375 -1.640625 C 2.128906 -1.710938 2.144531 -1.785156 2.15625 -1.859375 C 2.175781 -1.898438 2.191406 -1.945312 2.203125 -2 C 2.210938 -2.039062 2.222656 -2.085938 2.234375 -2.140625 C 2.242188 -2.191406 2.25 -2.238281 2.25 -2.28125 C 2.320312 -2.539062 2.359375 -2.671875 2.359375 -2.671875 L 2.359375 -2.703125 L 3.53125 -2.703125 L 3.53125 0.296875 L 2.75 0.296875 L 2.75 -2.125 L 2.703125 -1.953125 C 2.628906 -1.640625 2.550781 -1.3125 2.46875 -0.96875 C 2.394531 -0.625 2.320312 -0.265625 2.25 0.109375 L 2.21875 0.296875 L 1.53125 0.296875 L 1.5 0.171875 C 1.46875 -0.0351562 1.4375 -0.21875 1.40625 -0.375 C 1.375 -0.539062 1.347656 -0.6875 1.328125 -0.8125 C 1.273438 -1.0625 1.234375 -1.257812 1.203125 -1.40625 C 1.179688 -1.5625 1.160156 -1.675781 1.140625 -1.75 C 1.128906 -1.8125 1.117188 -1.863281 1.109375 -1.90625 C 1.109375 -1.945312 1.101562 -1.972656 1.09375 -1.984375 C 1.09375 -2.003906 1.09375 -2 1.09375 -1.96875 C 1.09375 -1.945312 1.09375 -1.894531 1.09375 -1.8125 C 1.09375 -1.769531 1.09375 -1.71875 1.09375 -1.65625 C 1.09375 -1.601562 1.09375 -1.539062 1.09375 -1.46875 C 1.09375 -1.40625 1.09375 -1.320312 1.09375 -1.21875 C 1.09375 -1.113281 1.09375 -1 1.09375 -0.875 L 1.09375 0.296875 L 0.296875 0.296875 L 0.296875 -1.171875 C 0.296875 -1.535156 0.296875 -1.820312 0.296875 -2.03125 C 0.296875 -2.25 0.296875 -2.390625 0.296875 -2.453125 C 0.285156 -2.578125 0.28125 -2.644531 0.28125 -2.65625 C 0.269531 -2.675781 0.253906 -2.6875 0.234375 -2.6875 Z M 0.234375 -2.6875 "/></g></g></g><g fill="#ffffff" fill-opacity="1"><g transform="translate(104.53574, 49.752926)"><g><path d="M 0.265625 -2.6875 L 0.234375 -2.703125 L 1.125 -2.703125 L 1.125 0.296875 L 0.3125 0.296875 L 0.3125 -2.640625 C 0.300781 -2.660156 0.285156 -2.675781 0.265625 -2.6875 Z M 0.265625 -2.6875 "/></g></g></g><g fill="#ffffff" fill-opacity="1"><g transform="translate(107.710931, 49.752926)"><g><path d="M 0.234375 -2.703125 L 1.109375 -2.703125 L 1.109375 0.296875 L 0.296875 0.296875 L 0.296875 -1.390625 C 0.296875 -1.703125 0.296875 -1.945312 0.296875 -2.125 C 0.296875 -2.3125 0.296875 -2.429688 0.296875 -2.484375 C 0.285156 -2.585938 0.273438 -2.648438 0.265625 -2.671875 C 0.253906 -2.679688 0.242188 -2.6875 0.234375 -2.6875 C 0.234375 -2.695312 0.234375 -2.703125 0.234375 -2.703125 Z M 1.21875 -2.703125 L 1.34375 -2.703125 L 1.40625 -2.546875 C 1.425781 -2.523438 1.445312 -2.476562 1.46875 -2.40625 C 1.5 -2.34375 1.515625 -2.304688 1.515625 -2.296875 C 1.566406 -2.179688 1.617188 -2.050781 1.671875 -1.90625 C 1.734375 -1.769531 1.796875 -1.609375 1.859375 -1.421875 C 2.003906 -1.066406 2.09375 -0.832031 2.125 -0.71875 L 2.140625 -0.6875 L 2.140625 -1.890625 C 2.140625 -2.390625 2.132812 -2.644531 2.125 -2.65625 C 2.125 -2.675781 2.109375 -2.691406 2.078125 -2.703125 L 2.9375 -2.703125 L 2.9375 0.296875 L 1.90625 0.296875 L 1.78125 -0.015625 C 1.6875 -0.253906 1.59375 -0.476562 1.5 -0.6875 C 1.414062 -0.894531 1.332031 -1.097656 1.25 -1.296875 L 1.21875 -1.390625 Z M 1.21875 -2.703125 "/></g></g></g><g fill="#ffffff" fill-opacity="1"><g transform="translate(112.689669, 49.752926)"><g><path d="M 1.71875 -2.734375 C 1.832031 -2.734375 1.910156 -2.734375 1.953125 -2.734375 C 2.128906 -2.703125 2.289062 -2.640625 2.4375 -2.546875 C 2.582031 -2.460938 2.695312 -2.34375 2.78125 -2.1875 C 2.789062 -2.164062 2.800781 -2.140625 2.8125 -2.109375 C 2.832031 -2.078125 2.847656 -2.039062 2.859375 -2 C 2.867188 -1.96875 2.875 -1.9375 2.875 -1.90625 C 2.882812 -1.875 2.890625 -1.847656 2.890625 -1.828125 L 2.890625 -1.8125 L 2.484375 -1.8125 C 2.390625 -1.8125 2.3125 -1.8125 2.25 -1.8125 C 2.1875 -1.8125 2.144531 -1.8125 2.125 -1.8125 C 2.082031 -1.8125 2.0625 -1.816406 2.0625 -1.828125 C 2.0625 -1.835938 2.054688 -1.847656 2.046875 -1.859375 C 2.046875 -1.867188 2.039062 -1.878906 2.03125 -1.890625 C 2.03125 -1.910156 2.019531 -1.925781 2 -1.9375 C 1.988281 -1.957031 1.984375 -1.972656 1.984375 -1.984375 C 1.929688 -2.035156 1.875 -2.070312 1.8125 -2.09375 C 1.757812 -2.113281 1.695312 -2.125 1.625 -2.125 C 1.507812 -2.125 1.414062 -2.09375 1.34375 -2.03125 C 1.28125 -1.96875 1.226562 -1.890625 1.1875 -1.796875 C 1.144531 -1.703125 1.113281 -1.597656 1.09375 -1.484375 C 1.082031 -1.378906 1.078125 -1.28125 1.078125 -1.1875 C 1.078125 -1.132812 1.078125 -1.09375 1.078125 -1.0625 C 1.078125 -1.03125 1.078125 -1 1.078125 -0.96875 C 1.097656 -0.78125 1.140625 -0.625 1.203125 -0.5 C 1.265625 -0.382812 1.347656 -0.304688 1.453125 -0.265625 C 1.492188 -0.253906 1.539062 -0.25 1.59375 -0.25 C 1.675781 -0.25 1.742188 -0.257812 1.796875 -0.28125 C 1.859375 -0.3125 1.90625 -0.347656 1.9375 -0.390625 C 1.976562 -0.441406 2.003906 -0.5 2.015625 -0.5625 C 2.035156 -0.632812 2.046875 -0.707031 2.046875 -0.78125 L 2.046875 -0.8125 L 1.5625 -0.8125 L 1.5625 -1.40625 L 2.890625 -1.40625 L 2.890625 0.265625 L 2.25 0.265625 L 2.25 0.015625 L 2.21875 0.0625 C 2.09375 0.25 1.875 0.34375 1.5625 0.34375 C 1.457031 0.34375 1.347656 0.332031 1.234375 0.3125 C 1.128906 0.289062 1.03125 0.257812 0.9375 0.21875 C 0.84375 0.175781 0.753906 0.117188 0.671875 0.046875 C 0.585938 -0.015625 0.515625 -0.09375 0.453125 -0.1875 C 0.253906 -0.445312 0.164062 -0.800781 0.1875 -1.25 C 0.1875 -1.507812 0.238281 -1.75 0.34375 -1.96875 C 0.457031 -2.1875 0.628906 -2.367188 0.859375 -2.515625 C 0.929688 -2.566406 1 -2.601562 1.0625 -2.625 C 1.132812 -2.65625 1.203125 -2.675781 1.265625 -2.6875 C 1.335938 -2.707031 1.40625 -2.71875 1.46875 -2.71875 C 1.539062 -2.726562 1.625 -2.734375 1.71875 -2.734375 Z M 1.71875 -2.734375 "/></g></g></g><g fill="#ffffff" fill-opacity="1"><g transform="translate(117.600426, 49.752926)"><g/></g></g><g fill="#ffffff" fill-opacity="1"><g transform="translate(120.143776, 49.752926)"><g><path d="M 0.234375 -2.703125 C 0.234375 -2.703125 0.238281 -2.703125 0.25 -2.703125 C 0.257812 -2.703125 0.296875 -2.703125 0.359375 -2.703125 C 0.429688 -2.703125 0.53125 -2.703125 0.65625 -2.703125 L 1.109375 -2.703125 L 1.109375 0.296875 L 0.296875 0.296875 L 0.296875 -2.640625 L 0.28125 -2.65625 C 0.257812 -2.675781 0.242188 -2.691406 0.234375 -2.703125 Z M 1.390625 -2.71875 C 1.421875 -2.726562 1.453125 -2.734375 1.484375 -2.734375 C 1.523438 -2.734375 1.566406 -2.734375 1.609375 -2.734375 C 1.722656 -2.722656 1.828125 -2.707031 1.921875 -2.6875 C 2.015625 -2.664062 2.097656 -2.632812 2.171875 -2.59375 C 2.253906 -2.5625 2.332031 -2.515625 2.40625 -2.453125 C 2.476562 -2.390625 2.546875 -2.3125 2.609375 -2.21875 C 2.722656 -2.03125 2.804688 -1.816406 2.859375 -1.578125 C 2.890625 -1.367188 2.898438 -1.164062 2.890625 -0.96875 C 2.867188 -0.78125 2.820312 -0.601562 2.75 -0.4375 C 2.675781 -0.28125 2.578125 -0.144531 2.453125 -0.03125 C 2.335938 0.0820312 2.203125 0.171875 2.046875 0.234375 C 1.890625 0.296875 1.710938 0.328125 1.515625 0.328125 C 1.460938 0.328125 1.410156 0.320312 1.359375 0.3125 C 1.304688 0.300781 1.257812 0.289062 1.21875 0.28125 C 1.207031 0.28125 1.203125 0.1875 1.203125 0 L 1.203125 -0.28125 L 1.34375 -0.28125 C 1.46875 -0.28125 1.578125 -0.300781 1.671875 -0.34375 C 1.765625 -0.382812 1.835938 -0.441406 1.890625 -0.515625 C 1.941406 -0.585938 1.976562 -0.675781 2 -0.78125 C 2.03125 -0.882812 2.050781 -1 2.0625 -1.125 C 2.0625 -1.226562 2.054688 -1.335938 2.046875 -1.453125 C 2.046875 -1.566406 2.023438 -1.671875 1.984375 -1.765625 C 1.960938 -1.835938 1.925781 -1.894531 1.875 -1.9375 C 1.832031 -1.976562 1.785156 -2.015625 1.734375 -2.046875 C 1.679688 -2.078125 1.625 -2.097656 1.5625 -2.109375 C 1.5 -2.117188 1.4375 -2.125 1.375 -2.125 L 1.203125 -2.140625 L 1.203125 -2.6875 L 1.265625 -2.703125 C 1.316406 -2.710938 1.359375 -2.71875 1.390625 -2.71875 Z M 1.390625 -2.71875 "/></g></g></g><g fill="#ffffff" fill-opacity="1"><g transform="translate(124.962551, 49.752926)"><g><path d="M 0.234375 -2.703125 C 0.304688 -2.703125 0.425781 -2.703125 0.59375 -2.703125 C 0.75 -2.703125 0.96875 -2.703125 1.25 -2.703125 C 1.53125 -2.703125 1.898438 -2.703125 2.359375 -2.703125 L 2.359375 -2.078125 L 1.09375 -2.078125 L 1.09375 -0.3125 L 2.484375 -0.3125 L 2.484375 -0.296875 C 2.484375 -0.296875 2.476562 -0.285156 2.46875 -0.265625 C 2.46875 -0.253906 2.460938 -0.234375 2.453125 -0.203125 C 2.453125 -0.171875 2.445312 -0.132812 2.4375 -0.09375 C 2.425781 -0.0625 2.421875 -0.03125 2.421875 0 C 2.378906 0.1875 2.359375 0.285156 2.359375 0.296875 C 2.347656 0.296875 2.003906 0.296875 1.328125 0.296875 L 0.3125 0.296875 L 0.3125 -1.140625 C 0.3125 -1.628906 0.3125 -1.992188 0.3125 -2.234375 C 0.3125 -2.472656 0.304688 -2.597656 0.296875 -2.609375 C 0.285156 -2.648438 0.265625 -2.679688 0.234375 -2.703125 Z M 1.234375 -1.53125 L 2.296875 -1.53125 L 2.296875 -0.921875 L 1.234375 -0.921875 Z M 1.234375 -1.53125 "/></g></g></g><g fill="#ffffff" fill-opacity="1"><g transform="translate(129.321443, 49.752926)"><g><path d="M 0.234375 -2.703125 C 0.234375 -2.703125 0.242188 -2.703125 0.265625 -2.703125 C 0.285156 -2.703125 0.335938 -2.703125 0.421875 -2.703125 L 2.40625 -2.703125 L 2.40625 -2.078125 L 1.109375 -2.078125 L 1.109375 0.296875 L 0.3125 0.296875 L 0.3125 -1.140625 C 0.3125 -2.109375 0.304688 -2.601562 0.296875 -2.625 C 0.273438 -2.664062 0.253906 -2.691406 0.234375 -2.703125 Z M 1.234375 -1.46875 L 2.3125 -1.46875 L 2.3125 -0.859375 L 1.234375 -0.859375 Z M 1.234375 -1.46875 "/></g></g></g><g fill="#ffffff" fill-opacity="1"><g transform="translate(133.632349, 49.752926)"><g><path d="M 0.265625 -2.6875 L 0.234375 -2.703125 L 1.125 -2.703125 L 1.125 0.296875 L 0.3125 0.296875 L 0.3125 -2.640625 C 0.300781 -2.660156 0.285156 -2.675781 0.265625 -2.6875 Z M 0.265625 -2.6875 "/></g></g></g><g fill="#ffffff" fill-opacity="1"><g transform="translate(136.80754, 49.752926)"><g/></g></g><g fill="#ffffff" fill-opacity="1"><g transform="translate(139.350896, 49.752926)"><g><path d="M 0.265625 -2.6875 L 0.234375 -2.703125 L 1.125 -2.703125 L 1.125 0.296875 L 0.3125 0.296875 L 0.3125 -2.640625 C 0.300781 -2.660156 0.285156 -2.675781 0.265625 -2.6875 Z M 0.265625 -2.6875 "/></g></g></g><g fill="#ffffff" fill-opacity="1"><g transform="translate(142.526092, 49.752926)"><g><path d="M 0.234375 -2.703125 L 1.109375 -2.703125 L 1.109375 0.296875 L 0.296875 0.296875 L 0.296875 -1.390625 C 0.296875 -1.703125 0.296875 -1.945312 0.296875 -2.125 C 0.296875 -2.3125 0.296875 -2.429688 0.296875 -2.484375 C 0.285156 -2.585938 0.273438 -2.648438 0.265625 -2.671875 C 0.253906 -2.679688 0.242188 -2.6875 0.234375 -2.6875 C 0.234375 -2.695312 0.234375 -2.703125 0.234375 -2.703125 Z M 1.21875 -2.703125 L 1.34375 -2.703125 L 1.40625 -2.546875 C 1.425781 -2.523438 1.445312 -2.476562 1.46875 -2.40625 C 1.5 -2.34375 1.515625 -2.304688 1.515625 -2.296875 C 1.566406 -2.179688 1.617188 -2.050781 1.671875 -1.90625 C 1.734375 -1.769531 1.796875 -1.609375 1.859375 -1.421875 C 2.003906 -1.066406 2.09375 -0.832031 2.125 -0.71875 L 2.140625 -0.6875 L 2.140625 -1.890625 C 2.140625 -2.390625 2.132812 -2.644531 2.125 -2.65625 C 2.125 -2.675781 2.109375 -2.691406 2.078125 -2.703125 L 2.9375 -2.703125 L 2.9375 0.296875 L 1.90625 0.296875 L 1.78125 -0.015625 C 1.6875 -0.253906 1.59375 -0.476562 1.5 -0.6875 C 1.414062 -0.894531 1.332031 -1.097656 1.25 -1.296875 L 1.21875 -1.390625 Z M 1.21875 -2.703125 "/></g></g></g><g fill="#ffffff" fill-opacity="1"><g transform="translate(147.50483, 49.752926)"><g><path d="M 0.234375 -2.703125 C 0.234375 -2.703125 0.242188 -2.703125 0.265625 -2.703125 C 0.285156 -2.703125 0.335938 -2.703125 0.421875 -2.703125 L 2.40625 -2.703125 L 2.40625 -2.078125 L 1.109375 -2.078125 L 1.109375 0.296875 L 0.3125 0.296875 L 0.3125 -1.140625 C 0.3125 -2.109375 0.304688 -2.601562 0.296875 -2.625 C 0.273438 -2.664062 0.253906 -2.691406 0.234375 -2.703125 Z M 1.234375 -1.46875 L 2.3125 -1.46875 L 2.3125 -0.859375 L 1.234375 -0.859375 Z M 1.234375 -1.46875 "/></g></g></g><g fill="#ffffff" fill-opacity="1"><g transform="translate(151.81574, 49.752926)"><g><path d="M 1.125 -1.4375 L 1.359375 -1.4375 C 1.421875 -1.4375 1.472656 -1.4375 1.515625 -1.4375 C 1.554688 -1.4375 1.582031 -1.4375 1.59375 -1.4375 C 1.625 -1.445312 1.660156 -1.460938 1.703125 -1.484375 C 1.765625 -1.515625 1.804688 -1.554688 1.828125 -1.609375 C 1.867188 -1.691406 1.878906 -1.78125 1.859375 -1.875 C 1.828125 -1.976562 1.769531 -2.046875 1.6875 -2.078125 L 1.640625 -2.09375 L 1.203125 -2.09375 L 1.203125 -2.703125 C 1.335938 -2.703125 1.445312 -2.703125 1.53125 -2.703125 C 1.613281 -2.703125 1.679688 -2.703125 1.734375 -2.703125 C 1.785156 -2.703125 1.820312 -2.703125 1.84375 -2.703125 C 1.863281 -2.703125 1.878906 -2.703125 1.890625 -2.703125 C 2.109375 -2.679688 2.285156 -2.613281 2.421875 -2.5 C 2.554688 -2.394531 2.648438 -2.226562 2.703125 -2 C 2.734375 -1.78125 2.707031 -1.597656 2.625 -1.453125 C 2.539062 -1.304688 2.40625 -1.21875 2.21875 -1.1875 L 2.15625 -1.1875 L 2.21875 -1.171875 C 2.394531 -1.140625 2.515625 -1.050781 2.578125 -0.90625 C 2.597656 -0.875 2.613281 -0.820312 2.625 -0.75 C 2.632812 -0.675781 2.644531 -0.582031 2.65625 -0.46875 C 2.6875 -0.0507812 2.703125 0.195312 2.703125 0.28125 L 2.703125 0.296875 L 1.859375 0.296875 L 1.84375 0.265625 C 1.84375 0.253906 1.84375 0.226562 1.84375 0.1875 C 1.84375 0.144531 1.835938 0.0976562 1.828125 0.046875 C 1.804688 -0.398438 1.773438 -0.664062 1.734375 -0.75 C 1.722656 -0.769531 1.675781 -0.789062 1.59375 -0.8125 C 1.570312 -0.8125 1.484375 -0.816406 1.328125 -0.828125 L 1.125 -0.828125 L 1.125 0.296875 L 0.3125 0.296875 L 0.3125 -1.15625 C 0.3125 -1.507812 0.3125 -1.785156 0.3125 -1.984375 C 0.3125 -2.191406 0.3125 -2.332031 0.3125 -2.40625 C 0.300781 -2.539062 0.296875 -2.613281 0.296875 -2.625 C 0.273438 -2.664062 0.253906 -2.691406 0.234375 -2.703125 C 0.242188 -2.703125 0.257812 -2.703125 0.28125 -2.703125 C 0.300781 -2.703125 0.328125 -2.703125 0.359375 -2.703125 C 0.390625 -2.703125 0.421875 -2.703125 0.453125 -2.703125 L 1.125 -2.703125 Z M 1.125 -1.4375 "/></g></g></g><g fill="#ffffff" fill-opacity="1"><g transform="translate(156.522545, 49.752926)"><g><path d="M 0.8125 -2.6875 C 0.800781 -2.695312 0.800781 -2.703125 0.8125 -2.703125 C 0.832031 -2.703125 0.890625 -2.703125 0.984375 -2.703125 C 1.078125 -2.703125 1.203125 -2.703125 1.359375 -2.703125 L 1.96875 -2.703125 L 1.984375 -2.625 C 2.003906 -2.570312 2.03125 -2.488281 2.0625 -2.375 C 2.082031 -2.300781 2.097656 -2.238281 2.109375 -2.1875 C 2.128906 -2.144531 2.140625 -2.109375 2.140625 -2.078125 C 2.140625 -2.066406 2.160156 -2 2.203125 -1.875 C 2.242188 -1.757812 2.269531 -1.664062 2.28125 -1.59375 C 2.3125 -1.488281 2.335938 -1.390625 2.359375 -1.296875 C 2.390625 -1.203125 2.421875 -1.113281 2.453125 -1.03125 C 2.453125 -1.007812 2.457031 -0.984375 2.46875 -0.953125 C 2.476562 -0.929688 2.488281 -0.898438 2.5 -0.859375 C 2.507812 -0.828125 2.515625 -0.796875 2.515625 -0.765625 C 2.523438 -0.742188 2.535156 -0.734375 2.546875 -0.734375 C 2.546875 -0.722656 2.546875 -0.707031 2.546875 -0.6875 C 2.554688 -0.664062 2.566406 -0.644531 2.578125 -0.625 C 2.597656 -0.5625 2.609375 -0.515625 2.609375 -0.484375 C 2.609375 -0.484375 2.609375 -0.472656 2.609375 -0.453125 C 2.617188 -0.429688 2.625 -0.40625 2.625 -0.375 C 2.632812 -0.351562 2.644531 -0.332031 2.65625 -0.3125 C 2.664062 -0.300781 2.671875 -0.289062 2.671875 -0.28125 C 2.671875 -0.28125 2.679688 -0.25 2.703125 -0.1875 C 2.703125 -0.175781 2.707031 -0.15625 2.71875 -0.125 C 2.726562 -0.09375 2.738281 -0.0546875 2.75 -0.015625 C 2.757812 0.015625 2.765625 0.0390625 2.765625 0.0625 C 2.773438 0.09375 2.78125 0.109375 2.78125 0.109375 C 2.78125 0.117188 2.785156 0.132812 2.796875 0.15625 C 2.804688 0.1875 2.8125 0.207031 2.8125 0.21875 C 2.820312 0.238281 2.828125 0.253906 2.828125 0.265625 C 2.828125 0.273438 2.832031 0.285156 2.84375 0.296875 C 2.84375 0.296875 2.835938 0.296875 2.828125 0.296875 C 2.816406 0.296875 2.78125 0.296875 2.71875 0.296875 C 2.65625 0.296875 2.570312 0.296875 2.46875 0.296875 L 2.046875 0.296875 L 2.03125 0.25 C 2.03125 0.238281 2.023438 0.222656 2.015625 0.203125 C 2.015625 0.179688 2.007812 0.160156 2 0.140625 C 2 0.128906 1.992188 0.113281 1.984375 0.09375 C 1.984375 0.0820312 1.976562 0.0625 1.96875 0.03125 C 1.957031 0 1.945312 -0.0234375 1.9375 -0.046875 C 1.9375 -0.078125 1.9375 -0.101562 1.9375 -0.125 L 1.890625 -0.3125 L 0.984375 -0.3125 L 0.96875 -0.28125 C 0.945312 -0.195312 0.925781 -0.113281 0.90625 -0.03125 C 0.882812 0.0390625 0.867188 0.109375 0.859375 0.171875 L 0.8125 0.296875 L 0.40625 0.296875 C 0.300781 0.296875 0.21875 0.296875 0.15625 0.296875 C 0.09375 0.296875 0.0625 0.296875 0.0625 0.296875 C 0.132812 0.046875 0.207031 -0.195312 0.28125 -0.4375 C 0.351562 -0.675781 0.421875 -0.921875 0.484375 -1.171875 C 0.484375 -1.179688 0.488281 -1.203125 0.5 -1.234375 C 0.507812 -1.273438 0.519531 -1.304688 0.53125 -1.328125 C 0.539062 -1.367188 0.550781 -1.40625 0.5625 -1.4375 C 0.570312 -1.476562 0.582031 -1.519531 0.59375 -1.5625 C 0.601562 -1.601562 0.613281 -1.644531 0.625 -1.6875 C 0.632812 -1.738281 0.648438 -1.789062 0.671875 -1.84375 C 0.671875 -1.851562 0.671875 -1.867188 0.671875 -1.890625 C 0.679688 -1.910156 0.6875 -1.929688 0.6875 -1.953125 C 0.695312 -1.984375 0.707031 -2.007812 0.71875 -2.03125 C 0.726562 -2.050781 0.734375 -2.066406 0.734375 -2.078125 C 0.734375 -2.085938 0.734375 -2.097656 0.734375 -2.109375 C 0.742188 -2.128906 0.753906 -2.15625 0.765625 -2.1875 C 0.773438 -2.238281 0.78125 -2.269531 0.78125 -2.28125 C 0.789062 -2.289062 0.796875 -2.3125 0.796875 -2.34375 C 0.804688 -2.375 0.820312 -2.414062 0.84375 -2.46875 C 0.863281 -2.53125 0.875 -2.570312 0.875 -2.59375 C 0.875 -2.632812 0.851562 -2.664062 0.8125 -2.6875 Z M 1.484375 -1.828125 C 1.453125 -1.960938 1.429688 -2.03125 1.421875 -2.03125 C 1.421875 -2.007812 1.410156 -1.957031 1.390625 -1.875 C 1.390625 -1.851562 1.382812 -1.820312 1.375 -1.78125 C 1.363281 -1.75 1.351562 -1.707031 1.34375 -1.65625 C 1.332031 -1.632812 1.320312 -1.59375 1.3125 -1.53125 C 1.300781 -1.476562 1.285156 -1.421875 1.265625 -1.359375 C 1.242188 -1.285156 1.222656 -1.203125 1.203125 -1.109375 C 1.171875 -1.003906 1.15625 -0.945312 1.15625 -0.9375 C 1.15625 -0.9375 1.25 -0.9375 1.4375 -0.9375 L 1.71875 -0.9375 L 1.703125 -0.96875 C 1.679688 -1.050781 1.648438 -1.164062 1.609375 -1.3125 C 1.578125 -1.457031 1.535156 -1.628906 1.484375 -1.828125 Z M 1.484375 -1.828125 "/></g></g></g><g fill="#ffffff" fill-opacity="1"><g transform="translate(161.165371, 49.752926)"><g><path d="M 1.171875 -2.734375 C 1.179688 -2.734375 1.203125 -2.734375 1.234375 -2.734375 C 1.265625 -2.734375 1.304688 -2.734375 1.359375 -2.734375 C 1.441406 -2.734375 1.519531 -2.726562 1.59375 -2.71875 C 1.675781 -2.707031 1.753906 -2.691406 1.828125 -2.671875 C 1.898438 -2.648438 1.96875 -2.617188 2.03125 -2.578125 C 2.101562 -2.546875 2.175781 -2.503906 2.25 -2.453125 C 2.351562 -2.347656 2.425781 -2.234375 2.46875 -2.109375 C 2.46875 -2.085938 2.472656 -2.066406 2.484375 -2.046875 C 2.492188 -2.023438 2.5 -2 2.5 -1.96875 C 2.507812 -1.9375 2.515625 -1.910156 2.515625 -1.890625 C 2.523438 -1.878906 2.53125 -1.867188 2.53125 -1.859375 L 2.53125 -1.84375 L 1.734375 -1.84375 L 1.734375 -1.890625 C 1.722656 -1.929688 1.703125 -1.96875 1.671875 -2 C 1.640625 -2.039062 1.601562 -2.070312 1.5625 -2.09375 C 1.53125 -2.113281 1.488281 -2.128906 1.4375 -2.140625 C 1.394531 -2.148438 1.351562 -2.15625 1.3125 -2.15625 C 1.144531 -2.15625 1.0625 -2.078125 1.0625 -1.921875 C 1.0625 -1.867188 1.09375 -1.816406 1.15625 -1.765625 C 1.21875 -1.722656 1.332031 -1.675781 1.5 -1.625 C 1.625 -1.582031 1.734375 -1.546875 1.828125 -1.515625 C 1.921875 -1.484375 2 -1.453125 2.0625 -1.421875 C 2.113281 -1.390625 2.160156 -1.359375 2.203125 -1.328125 C 2.253906 -1.296875 2.300781 -1.265625 2.34375 -1.234375 C 2.425781 -1.148438 2.488281 -1.050781 2.53125 -0.9375 C 2.582031 -0.820312 2.601562 -0.703125 2.59375 -0.578125 C 2.582031 -0.410156 2.539062 -0.265625 2.46875 -0.140625 C 2.394531 -0.0234375 2.296875 0.0664062 2.171875 0.140625 C 2.046875 0.210938 1.910156 0.265625 1.765625 0.296875 C 1.617188 0.328125 1.46875 0.34375 1.3125 0.34375 C 1.175781 0.34375 1.046875 0.328125 0.921875 0.296875 C 0.804688 0.265625 0.703125 0.21875 0.609375 0.15625 C 0.515625 0.09375 0.429688 0.015625 0.359375 -0.078125 C 0.285156 -0.179688 0.234375 -0.300781 0.203125 -0.4375 C 0.171875 -0.519531 0.15625 -0.582031 0.15625 -0.625 C 0.15625 -0.632812 0.289062 -0.640625 0.5625 -0.640625 L 0.953125 -0.640625 L 0.96875 -0.578125 C 0.976562 -0.503906 1.007812 -0.4375 1.0625 -0.375 C 1.113281 -0.3125 1.175781 -0.269531 1.25 -0.25 C 1.269531 -0.25 1.289062 -0.242188 1.3125 -0.234375 C 1.332031 -0.234375 1.359375 -0.234375 1.390625 -0.234375 C 1.453125 -0.234375 1.515625 -0.242188 1.578125 -0.265625 C 1.640625 -0.296875 1.6875 -0.347656 1.71875 -0.421875 C 1.738281 -0.472656 1.738281 -0.535156 1.71875 -0.609375 C 1.695312 -0.679688 1.664062 -0.734375 1.625 -0.765625 C 1.570312 -0.804688 1.4375 -0.859375 1.21875 -0.921875 C 1.101562 -0.953125 1.003906 -0.984375 0.921875 -1.015625 C 0.835938 -1.046875 0.765625 -1.070312 0.703125 -1.09375 C 0.523438 -1.1875 0.398438 -1.289062 0.328125 -1.40625 C 0.253906 -1.53125 0.222656 -1.695312 0.234375 -1.90625 C 0.242188 -2.03125 0.269531 -2.140625 0.3125 -2.234375 C 0.351562 -2.328125 0.410156 -2.40625 0.484375 -2.46875 C 0.566406 -2.539062 0.65625 -2.597656 0.75 -2.640625 C 0.851562 -2.679688 0.96875 -2.707031 1.09375 -2.71875 C 1.101562 -2.71875 1.117188 -2.71875 1.140625 -2.71875 C 1.160156 -2.726562 1.171875 -2.734375 1.171875 -2.734375 Z M 1.171875 -2.734375 "/></g></g></g><g fill="#ffffff" fill-opacity="1"><g transform="translate(165.656237, 49.752926)"><g><path d="M 0.078125 -2.703125 L 2.4375 -2.703125 L 2.4375 -2.09375 L 0.078125 -2.09375 Z M 0.828125 -1.953125 L 0.796875 -1.96875 L 1.671875 -1.96875 L 1.671875 0.296875 L 0.859375 0.296875 L 0.859375 -0.78125 C 0.859375 -1.15625 0.859375 -1.4375 0.859375 -1.625 C 0.859375 -1.8125 0.859375 -1.910156 0.859375 -1.921875 C 0.859375 -1.929688 0.847656 -1.941406 0.828125 -1.953125 Z M 0.828125 -1.953125 "/></g></g></g><g fill="#ffffff" fill-opacity="1"><g transform="translate(169.915159, 49.752926)"><g><path d="M 1.125 -1.4375 L 1.359375 -1.4375 C 1.421875 -1.4375 1.472656 -1.4375 1.515625 -1.4375 C 1.554688 -1.4375 1.582031 -1.4375 1.59375 -1.4375 C 1.625 -1.445312 1.660156 -1.460938 1.703125 -1.484375 C 1.765625 -1.515625 1.804688 -1.554688 1.828125 -1.609375 C 1.867188 -1.691406 1.878906 -1.78125 1.859375 -1.875 C 1.828125 -1.976562 1.769531 -2.046875 1.6875 -2.078125 L 1.640625 -2.09375 L 1.203125 -2.09375 L 1.203125 -2.703125 C 1.335938 -2.703125 1.445312 -2.703125 1.53125 -2.703125 C 1.613281 -2.703125 1.679688 -2.703125 1.734375 -2.703125 C 1.785156 -2.703125 1.820312 -2.703125 1.84375 -2.703125 C 1.863281 -2.703125 1.878906 -2.703125 1.890625 -2.703125 C 2.109375 -2.679688 2.285156 -2.613281 2.421875 -2.5 C 2.554688 -2.394531 2.648438 -2.226562 2.703125 -2 C 2.734375 -1.78125 2.707031 -1.597656 2.625 -1.453125 C 2.539062 -1.304688 2.40625 -1.21875 2.21875 -1.1875 L 2.15625 -1.1875 L 2.21875 -1.171875 C 2.394531 -1.140625 2.515625 -1.050781 2.578125 -0.90625 C 2.597656 -0.875 2.613281 -0.820312 2.625 -0.75 C 2.632812 -0.675781 2.644531 -0.582031 2.65625 -0.46875 C 2.6875 -0.0507812 2.703125 0.195312 2.703125 0.28125 L 2.703125 0.296875 L 1.859375 0.296875 L 1.84375 0.265625 C 1.84375 0.253906 1.84375 0.226562 1.84375 0.1875 C 1.84375 0.144531 1.835938 0.0976562 1.828125 0.046875 C 1.804688 -0.398438 1.773438 -0.664062 1.734375 -0.75 C 1.722656 -0.769531 1.675781 -0.789062 1.59375 -0.8125 C 1.570312 -0.8125 1.484375 -0.816406 1.328125 -0.828125 L 1.125 -0.828125 L 1.125 0.296875 L 0.3125 0.296875 L 0.3125 -1.15625 C 0.3125 -1.507812 0.3125 -1.785156 0.3125 -1.984375 C 0.3125 -2.191406 0.3125 -2.332031 0.3125 -2.40625 C 0.300781 -2.539062 0.296875 -2.613281 0.296875 -2.625 C 0.273438 -2.664062 0.253906 -2.691406 0.234375 -2.703125 C 0.242188 -2.703125 0.257812 -2.703125 0.28125 -2.703125 C 0.300781 -2.703125 0.328125 -2.703125 0.359375 -2.703125 C 0.390625 -2.703125 0.421875 -2.703125 0.453125 -2.703125 L 1.125 -2.703125 Z M 1.125 -1.4375 "/></g></g></g><g fill="#ffffff" fill-opacity="1"><g transform="translate(174.621964, 49.752926)"><g><path d="M 0.15625 -2.6875 L 0.125 -2.703125 L 1.125 -2.703125 L 1.125 -0.578125 L 1.140625 -0.515625 C 1.179688 -0.398438 1.28125 -0.316406 1.4375 -0.265625 C 1.46875 -0.265625 1.484375 -0.253906 1.484375 -0.234375 C 1.484375 -0.234375 1.484375 -0.207031 1.484375 -0.15625 C 1.484375 -0.101562 1.484375 -0.0351562 1.484375 0.046875 L 1.484375 0.328125 C 1.367188 0.328125 1.253906 0.320312 1.140625 0.3125 C 1.023438 0.300781 0.921875 0.265625 0.828125 0.203125 C 0.703125 0.148438 0.597656 0.078125 0.515625 -0.015625 C 0.429688 -0.117188 0.367188 -0.234375 0.328125 -0.359375 C 0.316406 -0.390625 0.304688 -0.425781 0.296875 -0.46875 C 0.296875 -0.507812 0.289062 -0.550781 0.28125 -0.59375 C 0.28125 -0.632812 0.28125 -0.734375 0.28125 -0.890625 C 0.28125 -1.046875 0.28125 -1.257812 0.28125 -1.53125 L 0.28125 -1.71875 C 0.28125 -1.9375 0.28125 -2.109375 0.28125 -2.234375 C 0.28125 -2.367188 0.28125 -2.453125 0.28125 -2.484375 C 0.269531 -2.554688 0.253906 -2.601562 0.234375 -2.625 C 0.210938 -2.65625 0.1875 -2.675781 0.15625 -2.6875 Z M 1.78125 -2.6875 C 1.769531 -2.695312 1.773438 -2.703125 1.796875 -2.703125 L 2.78125 -2.703125 L 2.78125 -1.65625 C 2.78125 -1.320312 2.78125 -1.0625 2.78125 -0.875 C 2.78125 -0.695312 2.78125 -0.597656 2.78125 -0.578125 C 2.757812 -0.441406 2.71875 -0.316406 2.65625 -0.203125 C 2.601562 -0.0859375 2.53125 0.00390625 2.4375 0.078125 C 2.34375 0.160156 2.234375 0.222656 2.109375 0.265625 C 1.992188 0.304688 1.867188 0.328125 1.734375 0.328125 L 1.59375 0.328125 L 1.59375 -0.265625 L 1.625 -0.265625 C 1.695312 -0.273438 1.757812 -0.3125 1.8125 -0.375 C 1.875 -0.4375 1.914062 -0.507812 1.9375 -0.59375 C 1.945312 -0.625 1.953125 -0.945312 1.953125 -1.5625 C 1.953125 -2.1875 1.945312 -2.507812 1.9375 -2.53125 C 1.914062 -2.601562 1.863281 -2.65625 1.78125 -2.6875 Z M 1.78125 -2.6875 "/></g></g></g><g fill="#ffffff" fill-opacity="1"><g transform="translate(179.432745, 49.752926)"><g><path d="M 1.59375 -2.734375 L 1.65625 -2.734375 C 1.78125 -2.734375 1.90625 -2.710938 2.03125 -2.671875 C 2.15625 -2.640625 2.265625 -2.585938 2.359375 -2.515625 C 2.460938 -2.441406 2.550781 -2.351562 2.625 -2.25 C 2.707031 -2.15625 2.765625 -2.039062 2.796875 -1.90625 C 2.804688 -1.863281 2.8125 -1.828125 2.8125 -1.796875 C 2.820312 -1.765625 2.828125 -1.738281 2.828125 -1.71875 L 2.828125 -1.703125 L 2.03125 -1.703125 L 2.015625 -1.734375 C 2.003906 -1.785156 1.976562 -1.835938 1.9375 -1.890625 C 1.90625 -1.953125 1.875 -2 1.84375 -2.03125 C 1.78125 -2.070312 1.703125 -2.097656 1.609375 -2.109375 L 1.59375 -2.109375 Z M 1.40625 -2.71875 C 1.414062 -2.726562 1.429688 -2.734375 1.453125 -2.734375 L 1.484375 -2.734375 L 1.484375 -2.125 L 1.4375 -2.109375 C 1.363281 -2.078125 1.296875 -2.019531 1.234375 -1.9375 C 1.171875 -1.863281 1.125 -1.769531 1.09375 -1.65625 C 1.070312 -1.582031 1.054688 -1.503906 1.046875 -1.421875 C 1.035156 -1.335938 1.035156 -1.242188 1.046875 -1.140625 C 1.046875 -1.078125 1.050781 -1.003906 1.0625 -0.921875 C 1.070312 -0.835938 1.085938 -0.753906 1.109375 -0.671875 C 1.128906 -0.597656 1.160156 -0.523438 1.203125 -0.453125 C 1.242188 -0.390625 1.300781 -0.34375 1.375 -0.3125 C 1.382812 -0.3125 1.394531 -0.304688 1.40625 -0.296875 C 1.425781 -0.296875 1.441406 -0.289062 1.453125 -0.28125 L 1.484375 -0.28125 L 1.484375 0.328125 L 1.421875 0.328125 C 1.066406 0.304688 0.785156 0.195312 0.578125 0 C 0.367188 -0.207031 0.242188 -0.488281 0.203125 -0.84375 C 0.191406 -0.863281 0.1875 -0.894531 0.1875 -0.9375 C 0.1875 -0.976562 0.1875 -1.023438 0.1875 -1.078125 C 0.175781 -1.203125 0.175781 -1.296875 0.1875 -1.359375 C 0.21875 -1.722656 0.335938 -2.023438 0.546875 -2.265625 C 0.753906 -2.503906 1.039062 -2.65625 1.40625 -2.71875 Z M 2.03125 -0.6875 L 2.03125 -0.703125 L 2.4375 -0.703125 C 2.707031 -0.710938 2.84375 -0.710938 2.84375 -0.703125 C 2.84375 -0.703125 2.84375 -0.671875 2.84375 -0.609375 C 2.8125 -0.460938 2.757812 -0.332031 2.6875 -0.21875 C 2.625 -0.101562 2.539062 -0.00390625 2.4375 0.078125 C 2.332031 0.160156 2.21875 0.222656 2.09375 0.265625 C 1.96875 0.304688 1.828125 0.328125 1.671875 0.328125 L 1.59375 0.328125 L 1.59375 -0.265625 L 1.625 -0.265625 C 1.726562 -0.285156 1.8125 -0.320312 1.875 -0.375 C 1.945312 -0.445312 2 -0.550781 2.03125 -0.6875 Z M 2.03125 -0.6875 "/></g></g></g><g fill="#ffffff" fill-opacity="1"><g transform="translate(184.163551, 49.752926)"><g><path d="M 0.078125 -2.703125 L 2.4375 -2.703125 L 2.4375 -2.09375 L 0.078125 -2.09375 Z M 0.828125 -1.953125 L 0.796875 -1.96875 L 1.671875 -1.96875 L 1.671875 0.296875 L 0.859375 0.296875 L 0.859375 -0.78125 C 0.859375 -1.15625 0.859375 -1.4375 0.859375 -1.625 C 0.859375 -1.8125 0.859375 -1.910156 0.859375 -1.921875 C 0.859375 -1.929688 0.847656 -1.941406 0.828125 -1.953125 Z M 0.828125 -1.953125 "/></g></g></g><g fill="#ffffff" fill-opacity="1"><g transform="translate(188.422473, 49.752926)"><g><path d="M 0.15625 -2.6875 L 0.125 -2.703125 L 1.125 -2.703125 L 1.125 -0.578125 L 1.140625 -0.515625 C 1.179688 -0.398438 1.28125 -0.316406 1.4375 -0.265625 C 1.46875 -0.265625 1.484375 -0.253906 1.484375 -0.234375 C 1.484375 -0.234375 1.484375 -0.207031 1.484375 -0.15625 C 1.484375 -0.101562 1.484375 -0.0351562 1.484375 0.046875 L 1.484375 0.328125 C 1.367188 0.328125 1.253906 0.320312 1.140625 0.3125 C 1.023438 0.300781 0.921875 0.265625 0.828125 0.203125 C 0.703125 0.148438 0.597656 0.078125 0.515625 -0.015625 C 0.429688 -0.117188 0.367188 -0.234375 0.328125 -0.359375 C 0.316406 -0.390625 0.304688 -0.425781 0.296875 -0.46875 C 0.296875 -0.507812 0.289062 -0.550781 0.28125 -0.59375 C 0.28125 -0.632812 0.28125 -0.734375 0.28125 -0.890625 C 0.28125 -1.046875 0.28125 -1.257812 0.28125 -1.53125 L 0.28125 -1.71875 C 0.28125 -1.9375 0.28125 -2.109375 0.28125 -2.234375 C 0.28125 -2.367188 0.28125 -2.453125 0.28125 -2.484375 C 0.269531 -2.554688 0.253906 -2.601562 0.234375 -2.625 C 0.210938 -2.65625 0.1875 -2.675781 0.15625 -2.6875 Z M 1.78125 -2.6875 C 1.769531 -2.695312 1.773438 -2.703125 1.796875 -2.703125 L 2.78125 -2.703125 L 2.78125 -1.65625 C 2.78125 -1.320312 2.78125 -1.0625 2.78125 -0.875 C 2.78125 -0.695312 2.78125 -0.597656 2.78125 -0.578125 C 2.757812 -0.441406 2.71875 -0.316406 2.65625 -0.203125 C 2.601562 -0.0859375 2.53125 0.00390625 2.4375 0.078125 C 2.34375 0.160156 2.234375 0.222656 2.109375 0.265625 C 1.992188 0.304688 1.867188 0.328125 1.734375 0.328125 L 1.59375 0.328125 L 1.59375 -0.265625 L 1.625 -0.265625 C 1.695312 -0.273438 1.757812 -0.3125 1.8125 -0.375 C 1.875 -0.4375 1.914062 -0.507812 1.9375 -0.59375 C 1.945312 -0.625 1.953125 -0.945312 1.953125 -1.5625 C 1.953125 -2.1875 1.945312 -2.507812 1.9375 -2.53125 C 1.914062 -2.601562 1.863281 -2.65625 1.78125 -2.6875 Z M 1.78125 -2.6875 "/></g></g></g><g fill="#ffffff" fill-opacity="1"><g transform="translate(193.233254, 49.752926)"><g><path d="M 1.125 -1.4375 L 1.359375 -1.4375 C 1.421875 -1.4375 1.472656 -1.4375 1.515625 -1.4375 C 1.554688 -1.4375 1.582031 -1.4375 1.59375 -1.4375 C 1.625 -1.445312 1.660156 -1.460938 1.703125 -1.484375 C 1.765625 -1.515625 1.804688 -1.554688 1.828125 -1.609375 C 1.867188 -1.691406 1.878906 -1.78125 1.859375 -1.875 C 1.828125 -1.976562 1.769531 -2.046875 1.6875 -2.078125 L 1.640625 -2.09375 L 1.203125 -2.09375 L 1.203125 -2.703125 C 1.335938 -2.703125 1.445312 -2.703125 1.53125 -2.703125 C 1.613281 -2.703125 1.679688 -2.703125 1.734375 -2.703125 C 1.785156 -2.703125 1.820312 -2.703125 1.84375 -2.703125 C 1.863281 -2.703125 1.878906 -2.703125 1.890625 -2.703125 C 2.109375 -2.679688 2.285156 -2.613281 2.421875 -2.5 C 2.554688 -2.394531 2.648438 -2.226562 2.703125 -2 C 2.734375 -1.78125 2.707031 -1.597656 2.625 -1.453125 C 2.539062 -1.304688 2.40625 -1.21875 2.21875 -1.1875 L 2.15625 -1.1875 L 2.21875 -1.171875 C 2.394531 -1.140625 2.515625 -1.050781 2.578125 -0.90625 C 2.597656 -0.875 2.613281 -0.820312 2.625 -0.75 C 2.632812 -0.675781 2.644531 -0.582031 2.65625 -0.46875 C 2.6875 -0.0507812 2.703125 0.195312 2.703125 0.28125 L 2.703125 0.296875 L 1.859375 0.296875 L 1.84375 0.265625 C 1.84375 0.253906 1.84375 0.226562 1.84375 0.1875 C 1.84375 0.144531 1.835938 0.0976562 1.828125 0.046875 C 1.804688 -0.398438 1.773438 -0.664062 1.734375 -0.75 C 1.722656 -0.769531 1.675781 -0.789062 1.59375 -0.8125 C 1.570312 -0.8125 1.484375 -0.816406 1.328125 -0.828125 L 1.125 -0.828125 L 1.125 0.296875 L 0.3125 0.296875 L 0.3125 -1.15625 C 0.3125 -1.507812 0.3125 -1.785156 0.3125 -1.984375 C 0.3125 -2.191406 0.3125 -2.332031 0.3125 -2.40625 C 0.300781 -2.539062 0.296875 -2.613281 0.296875 -2.625 C 0.273438 -2.664062 0.253906 -2.691406 0.234375 -2.703125 C 0.242188 -2.703125 0.257812 -2.703125 0.28125 -2.703125 C 0.300781 -2.703125 0.328125 -2.703125 0.359375 -2.703125 C 0.390625 -2.703125 0.421875 -2.703125 0.453125 -2.703125 L 1.125 -2.703125 Z M 1.125 -1.4375 "/></g></g></g><g fill="#ffffff" fill-opacity="1"><g transform="translate(197.940059, 49.752926)"><g><path d="M 0.234375 -2.703125 C 0.304688 -2.703125 0.425781 -2.703125 0.59375 -2.703125 C 0.75 -2.703125 0.96875 -2.703125 1.25 -2.703125 C 1.53125 -2.703125 1.898438 -2.703125 2.359375 -2.703125 L 2.359375 -2.078125 L 1.09375 -2.078125 L 1.09375 -0.3125 L 2.484375 -0.3125 L 2.484375 -0.296875 C 2.484375 -0.296875 2.476562 -0.285156 2.46875 -0.265625 C 2.46875 -0.253906 2.460938 -0.234375 2.453125 -0.203125 C 2.453125 -0.171875 2.445312 -0.132812 2.4375 -0.09375 C 2.425781 -0.0625 2.421875 -0.03125 2.421875 0 C 2.378906 0.1875 2.359375 0.285156 2.359375 0.296875 C 2.347656 0.296875 2.003906 0.296875 1.328125 0.296875 L 0.3125 0.296875 L 0.3125 -1.140625 C 0.3125 -1.628906 0.3125 -1.992188 0.3125 -2.234375 C 0.3125 -2.472656 0.304688 -2.597656 0.296875 -2.609375 C 0.285156 -2.648438 0.265625 -2.679688 0.234375 -2.703125 Z M 1.234375 -1.53125 L 2.296875 -1.53125 L 2.296875 -0.921875 L 1.234375 -0.921875 Z M 1.234375 -1.53125 "/></g></g></g></svg>